<svg width="48" height="48" viewBox="0 0 48 48" fill="none" xmlns="http://www.w3.org/2000/svg">
<path d="M39.0461 17.1485V11.4897L33.967 6.41065C33.4329 5.87648 33.4329 5.01048 33.967 4.47631C34.5012 3.94214 35.3672 3.94214 35.9014 4.47631L40.9805 9.5554C41.4935 10.0684 41.7817 10.7642 41.7817 11.4897V14.4128L39.0461 17.1485Z" fill="#BDF7F7"/>
<path d="M41.7815 24.7752L39.0459 19.8841V40.7327C39.0459 41.4881 38.4335 42.1005 37.6781 42.1005C36.9227 42.1005 36.3103 41.4881 36.3103 40.7327V30.2463C36.3103 27.2246 33.8608 24.7751 30.8391 24.7751L28.1035 26.1429L30.8391 27.5107C32.35 27.5107 33.5747 28.7354 33.5747 30.2463V40.7327C33.5747 42.999 35.4118 44.8361 37.6781 44.8361C39.9444 44.8361 41.7815 42.999 41.7815 40.7327V24.7752Z" fill="#504B83"/>
<path d="M28.1038 1.34015H25.3682V12.2825L30.8394 6.81134V4.07574C30.8394 2.56478 29.6147 1.34015 28.1038 1.34015Z" fill="#F52314"/>
<path d="M25.3683 1.34015H10.3225C8.81155 1.34015 7.58691 2.56478 7.58691 4.07574V6.81134L28.1039 13.6503V4.07574C28.1039 2.56478 26.8792 1.34015 25.3683 1.34015Z" fill="#FF4D1C"/>
<path d="M30.8398 30.2463V45.2921H19.8975L28.1042 30.2463H30.8398Z" fill="#F52314"/>
<path d="M7.58691 30.2463H28.1039V45.2921H7.58691V30.2463Z" fill="#FF4D1C"/>
<path d="M30.8391 43.9243H28.1035V46.6599H30.8391C31.5945 46.6599 32.2069 46.0474 32.2069 45.2921C32.2069 44.5367 31.5945 43.9243 30.8391 43.9243Z" fill="#5B3364"/>
<path d="M29.4713 45.2921C29.4713 44.5367 28.8589 43.9243 28.1035 43.9243H7.58655C6.83116 43.9243 6.21875 44.5367 6.21875 45.2921C6.21875 46.0474 6.83116 46.6599 7.58655 46.6599H28.1035C28.8589 46.6599 29.4713 46.0474 29.4713 45.2921Z" fill="#504B83"/>
<path d="M28.104 6.81134L22.6328 18.5288L28.104 30.2463H30.8396V6.81134H28.104Z" fill="#7CF0EE"/>
<path d="M7.58691 6.81134V30.2463H28.1039V22.0395L19.8971 15.7932L28.1039 9.54694V6.81134H7.58691Z" fill="#BDF7F7"/>
<path d="M21.2653 24.7751L19.2588 26.1429L21.2653 27.5107H25.3687V24.7751H21.2653Z" fill="#5B3364"/>
<path d="M17.1617 24.7751L15.1553 26.1429L17.1617 27.5107H21.2651V24.7751H17.1617Z" fill="#504B83"/>
<path d="M13.0576 24.7751H17.161V27.5107H13.0576V24.7751Z" fill="#4663A2"/>
<path d="M25.3687 9.54694L19.8975 15.7932L25.3687 22.0395H28.1042V9.54694H25.3687Z" fill="#3193E0"/>
<path d="M10.3223 9.54694H25.368V22.0395H10.3223V9.54694Z" fill="#26ABFF"/>
<path d="M39.0465 14.4129L37.6787 15.7807V23.4074L39.0465 24.7752H41.7821V14.413L39.0465 14.4129Z" fill="#F52314"/>
<path d="M37.6783 14.4129C36.923 14.4129 36.3105 15.0253 36.3105 15.7807V23.4074C36.3105 24.1627 36.923 24.7752 37.6783 24.7752H39.0461V14.413L37.6783 14.4129Z" fill="#FF4D1C"/>
<path d="M28.7878 22.0395V9.54694C28.7878 9.36555 28.7158 9.1916 28.5875 9.06335C28.4593 8.93509 28.2853 8.86304 28.1039 8.86304H10.3226C10.1412 8.86304 9.96724 8.93509 9.83898 9.06335C9.71073 9.1916 9.63867 9.36555 9.63867 9.54694V22.0395C9.63867 22.2209 9.71073 22.3948 9.83898 22.5231C9.96724 22.6513 10.1412 22.7234 10.3226 22.7234H28.1039C28.2853 22.7234 28.4593 22.6513 28.5875 22.5231C28.7158 22.3948 28.7878 22.2209 28.7878 22.0395ZM27.42 21.3556H11.0065V10.2308H27.42V21.3556ZM13.0582 24.0912C12.8768 24.0912 12.7028 24.1632 12.5746 24.2915C12.4463 24.4198 12.3743 24.5937 12.3743 24.7751V27.5107C12.3743 27.6921 12.4463 27.866 12.5746 27.9943C12.7028 28.1225 12.8768 28.1946 13.0582 28.1946H25.3683C25.5497 28.1946 25.7237 28.1225 25.8519 27.9943C25.9802 27.866 26.0522 27.6921 26.0522 27.5107V24.7751C26.0522 24.5937 25.9802 24.4198 25.8519 24.2915C25.7237 24.1632 25.5497 24.0912 25.3683 24.0912H13.0582ZM20.5811 25.459V26.8268H17.8455V25.459H20.5811ZM13.7421 25.459H16.4777V26.8268H13.7421V25.459ZM24.6844 26.8268H21.9489V25.459H24.6844V26.8268Z" fill="black"/>
<path d="M41.4642 9.07195L36.3851 3.99286C35.9976 3.60531 35.4824 3.39194 34.9343 3.39194C34.3863 3.39194 33.8711 3.6054 33.4836 3.99286C32.6838 4.79284 32.6838 6.09434 33.4836 6.89432L38.3624 11.7731V13.729H37.6785C36.5472 13.729 35.6268 14.6494 35.6268 15.7807V23.4074C35.6268 24.5387 36.5472 25.4591 37.6785 25.4591H38.3624V40.7327C38.3624 41.1099 38.0556 41.4166 37.6785 41.4166C37.3014 41.4166 36.9946 41.1099 36.9946 40.7327V30.2463C36.9946 26.8523 34.2335 24.0912 30.8395 24.0912C30.6581 24.0912 30.4842 24.1632 30.3559 24.2915C30.2277 24.4198 30.1556 24.5937 30.1556 24.7751V29.5624H8.27084V7.49524H30.1556V22.0395C30.1556 22.4172 30.4617 22.7234 30.8395 22.7234C31.2173 22.7234 31.5234 22.4172 31.5234 22.0395V4.07574C31.5233 2.19019 29.9894 0.65625 28.1038 0.65625H10.3224C8.43689 0.65625 6.90295 2.19019 6.90295 4.07574V43.358C6.10699 43.6403 5.53516 44.4004 5.53516 45.2921C5.53516 46.4234 6.45559 47.3438 7.58685 47.3438H30.8394C31.9707 47.3438 32.8911 46.4234 32.8911 45.2921C32.8911 44.4005 32.3193 43.6403 31.5233 43.358V28.3122C32.3193 28.5945 32.8911 29.3547 32.8911 30.2463V40.7327C32.8911 43.3725 35.0387 45.52 37.6784 45.52C40.3181 45.52 42.4657 43.3725 42.4657 40.7327V11.4898C42.4657 10.5765 42.1101 9.71782 41.4642 9.07195ZM39.5299 11.0062L34.4508 5.9271C34.1841 5.66048 34.1841 5.22661 34.4508 4.95998C34.5799 4.83077 34.7517 4.75964 34.9343 4.75964C35.117 4.75964 35.2888 4.83077 35.4179 4.95998L40.497 10.0391C40.8845 10.4266 41.098 10.9418 41.098 11.4898V13.7291H39.7302V11.4898C39.7301 11.3085 39.6581 11.1345 39.5299 11.0062ZM36.9945 23.4074V15.7807C36.9945 15.4037 37.3013 15.0968 37.6784 15.0968H41.0979V24.0912H37.6784C37.3013 24.0913 36.9945 23.7845 36.9945 23.4074ZM30.1555 30.9302V43.2404H8.27075V30.9302H30.1555ZM10.3224 2.02405H28.1038C29.2351 2.02405 30.1555 2.94439 30.1555 4.07574V6.12744H8.27075V4.07574C8.27075 2.94439 9.19119 2.02405 10.3224 2.02405ZM30.8394 45.976H7.58685C7.20971 45.976 6.90295 45.6692 6.90295 45.2921C6.90295 44.9149 7.20971 44.6082 7.58685 44.6082H30.8394C31.2166 44.6082 31.5233 44.9149 31.5233 45.2921C31.5233 45.6692 31.2166 45.976 30.8394 45.976ZM37.6784 44.1522C35.7929 44.1522 34.2589 42.6183 34.2589 40.7327V30.2463C34.2589 28.5949 33.0822 27.2133 31.5233 26.8956V25.5078C33.8402 25.8406 35.6267 27.8388 35.6267 30.2464V40.7328C35.6267 41.8642 36.5471 42.7845 37.6784 42.7845C38.8097 42.7845 39.7301 41.8642 39.7301 40.7328V25.4591H41.0979V40.7327C41.0979 42.6183 39.564 44.1522 37.6784 44.1522Z" fill="black"/>
</svg>
